<?xml version="1.0" encoding="UTF-8"?>
<svg width="63px" height="63px" viewBox="0 0 63 63" version="1.1" xmlns="http://www.w3.org/2000/svg" xmlns:xlink="http://www.w3.org/1999/xlink">
    <!-- Generator: Sketch 52.1 (67048) - http://www.bohemiancoding.com/sketch -->
    <title>logo_dark</title>
    <desc>Created with Sketch.</desc>
    <g id="Page-1" stroke="none" stroke-width="1" fill="none" fill-rule="evenodd">
        <path d="M56.0956122,1.75966807 L34.2061619,23.6491184 C33.308642,23.3113551 32.3361838,23.1265823 31.3205696,23.1265823 C26.7951554,23.1265823 23.1265823,26.7951554 23.1265823,31.3205696 C23.1265823,32.3361838 23.3113551,33.308642 23.6491184,34.2061619 L1.75966807,56.0956122 C0.639504085,54.1190018 -1.4782554e-15,51.834183 -1.77635684e-15,49.4 L0,13.6 C-9.19841101e-16,6.0889274 6.0889274,-3.96595187e-16 13.6,-1.77635684e-15 L49.4,0 C51.834183,-4.47152161e-16 54.1190018,0.639504085 56.0956122,1.75966807 Z M61.335757,7.07564295 C62.3967413,9.01250797 63,11.2358047 63,13.6 L63,49.4 C63,56.9110726 56.9110726,63 49.4,63 L13.6,63 C11.2358047,63 9.01250797,62.3967413 7.07564295,61.335757 L29.1794196,39.2319804 C29.8619541,39.4162537 30.5797819,39.514557 31.3205696,39.514557 C35.8459839,39.514557 39.514557,35.8459839 39.514557,31.3205696 C39.514557,30.5797819 39.4162537,29.8619541 39.2319804,29.1794196 L61.335757,7.07564295 Z" id="logo_dark" fill="#000000"></path>
    </g>
</svg>